name C:\Users\antoi\Documents\MyRepositories\upper-imu-dc\Results\main_tracking\Case_76\FLX01_linearAccelerations_groundFrame.mot
datacolumns 4
datarows 141
range 5.01000000 6.41000000
endheader 
time	radius_imu_x	radius_imu_y	radius_imu_z	
          5.01000000	         -0.67438767	         10.81402301	         -0.67866945	
          5.02000000	         -0.61405118	         10.79546533	         -0.71512151	
          5.03000000	         -0.55721868	         10.77364178	         -0.74669542	
          5.04000000	         -0.50493980	         10.74815888	         -0.77324709	
          5.05000000	         -0.45824283	         10.71876165	         -0.79494406	
          5.06000000	         -0.41805201	         10.68541462	         -0.81208050	
          5.07000000	         -0.38513609	         10.64834237	         -0.82480991	
          5.08000000	         -0.36007545	         10.60800998	         -0.83293083	
          5.09000000	         -0.34323826	         10.56505781	         -0.83586158	
          5.10000000	         -0.33475879	         10.52022668	         -0.83284465	
          5.11000000	         -0.33446326	         10.47432134	         -0.82328220	
          5.12000000	         -0.34177593	         10.42826695	         -0.80710330	
          5.13000000	         -0.35572469	         10.38319116	         -0.78500092	
          5.14000000	         -0.37491437	         10.34050289	         -0.75803862	
          5.15000000	         -0.39772329	         10.30211250	         -0.72682701	
          5.16000000	         -0.42253502	         10.26890432	         -0.69361829	
          5.17000000	         -0.44760663	         10.24117593	         -0.65810290	
          5.18000000	         -0.47195053	         10.22078492	         -0.62143508	
          5.19000000	         -0.49315123	         10.20904176	         -0.58275918	
          5.20000000	         -0.51037710	         10.20628445	         -0.54239468	
          5.21000000	         -0.52358431	         10.21091949	         -0.50018940	
          5.22000000	         -0.53194728	         10.22260498	         -0.45722307	
          5.23000000	         -0.53485789	         10.24189289	         -0.41370005	
          5.24000000	         -0.53375392	         10.26826998	         -0.36717993	
          5.25000000	         -0.52792484	         10.30073249	         -0.32006306	
          5.26000000	         -0.52063686	         10.33625416	         -0.26995535	
          5.27000000	         -0.51181314	         10.37314236	         -0.21931165	
          5.28000000	         -0.50460577	         10.41135497	         -0.16266002	
          5.29000000	         -0.49773294	         10.45040027	         -0.10299468	
          5.30000000	         -0.49590271	         10.48459992	         -0.03958685	
          5.31000000	         -0.49764192	         10.51548861	          0.02626695	
          5.32000000	         -0.50372323	         10.54288795	          0.09517922	
          5.33000000	         -0.51377694	         10.56615922	          0.16515217	
          5.34000000	         -0.52776540	         10.58521277	          0.23555755	
          5.35000000	         -0.54492709	         10.60013486	          0.30490927	
          5.36000000	         -0.56494462	         10.61116837	          0.37279310	
          5.37000000	         -0.58743852	         10.61792407	          0.43775116	
          5.38000000	         -0.61199599	         10.62130728	          0.50012010	
          5.39000000	         -0.63831251	         10.62132209	          0.55894018	
          5.40000000	         -0.66667274	         10.61747100	          0.61312220	
          5.41000000	         -0.69702857	         10.60963995	          0.66135173	
          5.42000000	         -0.72928210	         10.59789165	          0.70229321	
          5.43000000	         -0.76322479	         10.58240355	          0.73447578	
          5.44000000	         -0.79850325	         10.56350732	          0.75641784	
          5.45000000	         -0.83471524	         10.54164066	          0.76683797	
          5.46000000	         -0.87143148	         10.51732073	          0.76479575	
          5.47000000	         -0.90818125	         10.49112345	          0.74974942	
          5.48000000	         -0.94438394	         10.46369273	          0.72151765	
          5.49000000	         -0.97927347	         10.43574119	          0.68015449	
          5.50000000	         -1.01182473	         10.40808080	          0.62586381	
          5.51000000	         -1.04074059	         10.38162271	          0.55896883	
          5.52000000	         -1.06449897	         10.35733473	          0.47992900	
          5.53000000	         -1.08143848	         10.33616802	          0.38937909	
          5.54000000	         -1.08986082	         10.31897147	          0.28817096	
          5.55000000	         -1.08814519	         10.30640929	          0.17741291	
          5.56000000	         -1.07487792	         10.29889821	          0.05851526	
          5.57000000	         -1.04896580	         10.29658790	         -0.06676459	
          5.58000000	         -1.00970927	         10.29938129	         -0.19630624	
          5.59000000	         -0.95682115	         10.30698387	         -0.32766000	
          5.60000000	         -0.89039821	         10.31896696	         -0.45813631	
          5.61000000	         -0.81087781	         10.33483067	         -0.58493204	
          5.62000000	         -0.71902875	         10.35404476	         -0.70526670	
          5.63000000	         -0.61599048	         10.37605594	         -0.81650513	
          5.64000000	         -0.50332933	         10.40025296	         -0.91629636	
          5.65000000	         -0.38304345	         10.42590870	         -1.00277043	
          5.66000000	         -0.25743381	         10.45216452	         -1.07474579	
          5.67000000	         -0.12884864	         10.47808836	         -1.13185732	
          5.68000000	          0.00059409	         10.50276458	         -1.17455952	
          5.69000000	          0.12919532	         10.52537255	         -1.20399089	
          5.70000000	          0.25578037	         10.54529090	         -1.22164094	
          5.71000000	          0.37966258	         10.56214871	         -1.22898585	
          5.72000000	          0.50050762	         10.57583270	         -1.22718740	
          5.73000000	          0.61815369	         10.58646316	         -1.21691116	
          5.74000000	          0.73242713	         10.59433715	         -1.19827742	
          5.75000000	          0.84297939	         10.59984303	         -1.17092129	
          5.76000000	          0.94916713	         10.60336340	         -1.13414406	
          5.77000000	          1.05002153	         10.60520427	         -1.08711546	
          5.78000000	          1.14432997	         10.60557598	         -1.02907204	
          5.79000000	          1.23077907	         10.60459939	         -0.95951086	
          5.80000000	          1.30811683	         10.60231610	         -0.87837879	
          5.81000000	          1.37532005	         10.59870838	         -0.78622356	
          5.82000000	          1.43173589	         10.59372456	         -0.68429109	
          5.83000000	          1.47721223	         10.58732574	         -0.57450012	
          5.84000000	          1.51217225	         10.57951584	         -0.45934044	
          5.85000000	          1.53765152	         10.57037546	         -0.34165511	
          5.86000000	          1.55524183	         10.56006220	         -0.22440552	
          5.87000000	          1.56696793	         10.54880614	         -0.11040453	
          5.88000000	          1.57507224	         10.53686640	         -0.00213051	
          5.89000000	          1.58174609	         10.52449371	          0.09844653	
          5.90000000	          1.58883096	         10.51188994	          0.18993646	
          5.91000000	          1.59766017	         10.49921713	          0.27161062	
          5.92000000	          1.60888637	         10.48650129	          0.34313478	
          5.93000000	          1.62265409	         10.47374590	          0.40476520	
          5.94000000	          1.63866613	         10.46092693	          0.45720798	
          5.95000000	          1.65583568	         10.44778159	          0.50087121	
          5.96000000	          1.67278616	         10.43419880	          0.53674108	
          5.97000000	          1.68829740	         10.41999486	          0.56542851	
          5.98000000	          1.69942853	         10.40396769	          0.58440984	
          5.99000000	          1.70638174	         10.38806771	          0.60023033	
          6.00000000	          1.70663660	         10.37047127	          0.60765521	
          6.01000000	          1.70097250	         10.35142261	          0.60704865	
          6.02000000	          1.68583982	         10.32984734	          0.59532796	
          6.03000000	          1.66104662	         10.31009857	          0.58733360	
          6.04000000	          1.63073501	         10.28677574	          0.56442609	
          6.05000000	          1.58323339	         10.26039366	          0.53081423	
          6.06000000	          1.53594329	         10.23648049	          0.50330777	
          6.07000000	          1.46313041	         10.20837973	          0.46421365	
          6.08000000	          1.39350586	         10.18012438	          0.42308491	
          6.09000000	          1.30520454	         10.15009774	          0.37855998	
          6.10000000	          1.21064353	         10.12021817	          0.33569775	
          6.11000000	          1.10674246	         10.09064492	          0.29575074	
          6.12000000	          0.99708403	         10.06006795	          0.25335140	
          6.13000000	          0.88561782	         10.03034785	          0.21435342	
          6.14000000	          0.77044730	         10.00209657	          0.18103801	
          6.15000000	          0.65435323	          9.97602968	          0.15539505	
          6.16000000	          0.54486358	          9.95079051	          0.13099496	
          6.17000000	          0.43828375	          9.92796100	          0.11430307	
          6.18000000	          0.33706078	          9.90778520	          0.10606686	
          6.19000000	          0.24489308	          9.89037598	          0.10608710	
          6.20000000	          0.16035427	          9.87509009	          0.11204072	
          6.21000000	          0.08585316	          9.86229448	          0.12459537	
          6.22000000	          0.02012415	          9.85144031	          0.14156507	
          6.23000000	         -0.03592206	          9.84244565	          0.16160880	
          6.24000000	         -0.08238530	          9.83508167	          0.18304345	
          6.25000000	         -0.11982018	          9.82913485	          0.20423299	
          6.26000000	         -0.14870035	          9.82452704	          0.22413173	
          6.27000000	         -0.16954357	          9.82120053	          0.24204702	
          6.28000000	         -0.18296362	          9.81907966	          0.25742992	
          6.29000000	         -0.18971066	          9.81801756	          0.26978669	
          6.30000000	         -0.19060876	          9.81777790	          0.27849250	
          6.31000000	         -0.18651039	          9.81807691	          0.28277956	
          6.32000000	         -0.17825289	          9.81861531	          0.28184984	
          6.33000000	         -0.16663292	          9.81912615	          0.27506692	
          6.34000000	         -0.15238228	          9.81941576	          0.26215687	
          6.35000000	         -0.13616826	          9.81937569	          0.24330810	
          6.36000000	         -0.11861893	          9.81895757	          0.21919138	
          6.37000000	         -0.10039542	          9.81814131	          0.19086843	
          6.38000000	         -0.08217028	          9.81691441	          0.15961949	
          6.39000000	         -0.06443003	          9.81525377	          0.12678985	
          6.40000000	         -0.04753407	          9.81313836	          0.09363414	
          6.41000000	         -0.03193285	          9.81056743	          0.06126402	
